HIERARCHY
ROOT Hips
{
	OFFSET 0.00000 0.00000 0.00000
	CHANNELS 6 Xposition Yposition Zposition Zrotation Yrotation Xrotation 
	JOINT LHipJoint
	{
		OFFSET 0 0 0
		CHANNELS 3 Zrotation Yrotation Xrotation
		JOINT LeftUpLeg
		{
			OFFSET 1.98141 -1.79044 0.80905
			CHANNELS 3 Zrotation Yrotation Xrotation
			JOINT LeftLeg
			{
				OFFSET 2.48669 -6.83213 0.00000
				CHANNELS 3 Zrotation Yrotation Xrotation
				JOINT LeftFoot
				{
					OFFSET 2.68940 -7.38907 0.00000
					CHANNELS 3 Zrotation Yrotation Xrotation
					JOINT LeftToeBase
					{
						OFFSET 0.12857 -0.35324 2.34549
						CHANNELS 3 Zrotation Yrotation Xrotation
						End Site
						{
							OFFSET 0.00000 -0.00000 1.19593
						}
					}
				}
			}
		}
	}
	JOINT RHipJoint
	{
		OFFSET 0 0 0
		CHANNELS 3 Zrotation Yrotation Xrotation
		JOINT RightUpLeg
		{
			OFFSET -1.80120 -1.79044 0.80905
			CHANNELS 3 Zrotation Yrotation Xrotation
			JOINT RightLeg
			{
				OFFSET -2.77667 -7.62884 0.00000
				CHANNELS 3 Zrotation Yrotation Xrotation
				JOINT RightFoot
				{
					OFFSET -2.72618 -7.49012 0.00000
					CHANNELS 3 Zrotation Yrotation Xrotation
					JOINT RightToeBase
					{
						OFFSET -0.15954 -0.43820 2.14670
						CHANNELS 3 Zrotation Yrotation Xrotation
						End Site
						{
							OFFSET -0.00000 -0.00000 1.10438
						}
					}
				}
			}
		}
	}
	JOINT LowerBack
	{
		OFFSET 0 0 0
		CHANNELS 3 Zrotation Yrotation Xrotation
		JOINT Spine
		{
			OFFSET -0.00825 2.03905 -0.05153
			CHANNELS 3 Zrotation Yrotation Xrotation
			JOINT Spine1
			{
				OFFSET 0.01521 2.04267 0.00496
				CHANNELS 3 Zrotation Yrotation Xrotation
				JOINT Neck
				{
					OFFSET 0 0 0
					CHANNELS 3 Zrotation Yrotation Xrotation
					JOINT Neck1
					{
						OFFSET 0.04513 1.36240 0.17993
						CHANNELS 3 Zrotation Yrotation Xrotation
						JOINT Head
						{
							OFFSET -0.04116 1.35857 0.01300
							CHANNELS 3 Zrotation Yrotation Xrotation
							End Site
							{
								OFFSET -0.01884 1.44433 -0.01572
							}
						}
					}
				}
				JOINT LeftShoulder
				{
					OFFSET 0 0 0
					CHANNELS 3 Zrotation Yrotation Xrotation
					JOINT LeftArm
					{
						OFFSET 2.95523 0.86449 0.36905
						CHANNELS 3 Zrotation Yrotation Xrotation
						JOINT LeftForeArm
						{
							OFFSET 5.82845 -0.00000 -0.00000
							CHANNELS 3 Zrotation Yrotation Xrotation
							JOINT LeftHand
							{
								OFFSET 3.49691 -0.00000 0.00000
								CHANNELS 3 Zrotation Yrotation Xrotation
								JOINT LeftFingerBase
								{
									OFFSET 0 0 0
									CHANNELS 3 Zrotation Yrotation Xrotation
									JOINT LeftHandIndex1
									{
										OFFSET 0.67500 -0.00000 0.00000
										CHANNELS 3 Zrotation Yrotation Xrotation
										End Site
										{
											OFFSET 0.54420 -0.00000 0.00000
										}
									}
								}
								JOINT LThumb
								{
									OFFSET 0 0 0
									CHANNELS 3 Zrotation Yrotation Xrotation
									End Site
									{
										OFFSET 0.55251 -0.00000 0.55251
									}
								}
							}
						}
					}
				}
				JOINT RightShoulder
				{
					OFFSET 0 0 0
					CHANNELS 3 Zrotation Yrotation Xrotation
					JOINT RightArm
					{
						OFFSET -3.41586 0.85389 0.25405
						CHANNELS 3 Zrotation Yrotation Xrotation
						JOINT RightForeArm
						{
							OFFSET -5.45859 -0.00000 0.00000
							CHANNELS 3 Zrotation Yrotation Xrotation
							JOINT RightHand
							{
								OFFSET -3.58491 -0.00000 0.00000
								CHANNELS 3 Zrotation Yrotation Xrotation
								JOINT RightFingerBase
								{
									OFFSET 0 0 0
									CHANNELS 3 Zrotation Yrotation Xrotation
									JOINT RightHandIndex1
									{
										OFFSET -0.68373 -0.00000 0.00000
										CHANNELS 3 Zrotation Yrotation Xrotation
										End Site
										{
											OFFSET -0.55124 -0.00000 0.00000
										}
									}
								}
								JOINT RThumb
								{
									OFFSET 0 0 0
									CHANNELS 3 Zrotation Yrotation Xrotation
									End Site
									{
										OFFSET -0.55966 -0.00000 0.55966
									}
								}
							}
						}
					}
				}
			}
		}
	}
}
MOTION
Frames: 13
Frame Time: .0083333
-2.9985 18.9331 -29.8238 130.6330 -69.0247 -144.3310 0.0000 0.0000 0.0000 -9.2741 -5.2512 -34.8179 0.0000 -0.0000 -0.0000 -0.3210 10.6881 0.1511 1.3531 7.3637 20.7974 0.0000 0.0000 0.0000 14.0556 15.0891 10.5879 -3.5175 -11.4891 33.9476 0.2022 9.6675 -2.3421 -2.7765 -10.3242 30.0330 3.6734 5.6697 4.3104 3.1577 7.1070 8.5865 1.3670 3.5185 6.6190 11.9027 24.5293 0.2289 -1.1196 33.0268 15.8790 0.5931 16.6596 6.9463 -0.0000 -0.0000 0.0000 6.7589 18.2109 -35.1293 19.2537 -29.7328 -5.1561 -0.0000 0.0000 -35.6784 48.6110 46.9493 39.6653 -7.1250 0.0000 -0.0000 -2.8973 -1.8320 177.1932 -0.0000 -0.0000 0.0000 74.2081 -44.5438 67.2150 -20.0362 30.6860 -5.5498 0.0000 -0.0000 -0.9677 10.2526 32.7768 5.5926 7.1250 -0.0000 -0.0000 23.1698 1.0075 25.7655
-3.0225 18.8693 -29.8368 131.0490 -69.9703 -144.7040 0.0000 0.0000 0.0000 -10.1760 -6.2551 -34.3948 0.0000 0.0000 0.0000 -0.3271 10.7744 0.1160 1.1284 6.7471 18.9683 0.0000 0.0000 0.0000 14.6979 14.2006 10.0574 -3.6635 -11.6986 34.6738 0.2231 10.1501 -2.4590 -2.4352 -9.7191 28.0719 3.6711 5.5169 4.2072 3.4950 6.8763 8.5395 1.7179 3.3878 6.5818 11.0712 24.5286 0.2973 -1.0228 33.0482 15.7774 0.6338 16.6495 6.7555 -0.0000 0.0000 0.0000 4.7987 18.5404 -35.9018 19.3005 -29.7904 -5.1793 -0.0000 0.0000 -35.5976 48.5148 47.3861 39.7690 -7.1250 0.0000 -0.0000 -2.6721 -1.4738 177.3947 -0.0000 0.0000 0.0000 73.0310 -43.8771 67.3135 -19.2830 29.7688 -5.1706 0.0000 -0.0000 -0.3921 10.9061 32.5555 5.9195 7.1250 -0.0000 -0.0000 23.5135 0.7970 26.1348
-3.0478 18.8051 -29.8571 131.3930 -70.7421 -144.9810 0.0000 0.0000 0.0000 -11.2871 -7.0276 -33.6977 0.0000 -0.0000 -0.0000 -0.3506 11.1685 0.1703 0.8600 5.9136 16.5340 0.0000 0.0000 0.0000 15.2227 13.4823 9.5676 -3.8082 -11.9008 35.3819 0.2509 10.6392 -2.4257 -2.2321 -9.3336 26.8445 3.5629 5.4967 4.0982 3.6109 6.8530 8.3948 1.8948 3.3679 6.4582 10.6719 24.4749 0.3715 -0.9178 32.9678 15.6220 0.6412 16.6053 6.6077 0.0000 0.0000 0.0000 3.1238 18.4908 -36.8263 19.3456 -29.8459 -5.2017 -0.0000 0.0000 -36.0176 48.6934 47.4580 39.9787 -7.1250 0.0000 -0.0000 -2.7037 -1.3224 177.3565 0.0000 0.0000 0.0000 72.7782 -43.3022 66.7931 -18.6086 28.9295 -4.8401 0.0000 0.0000 0.2986 11.8395 32.8610 6.4893 7.1250 -0.0000 -0.0000 23.9664 1.0829 26.8682
-3.0697 18.7524 -29.8856 132.5100 -71.5969 -145.9210 0.0000 0.0000 0.0000 -12.1596 -7.6134 -32.8134 0.0000 0.0000 0.0000 -0.3468 11.6126 1.3173 0.1994 2.8757 7.9329 0.0000 0.0000 0.0000 16.0103 12.8030 8.9580 -3.9596 -12.1065 36.1097 0.2770 11.1578 -2.5240 -1.9731 -8.8098 25.2021 3.7004 5.5714 3.8687 3.6617 6.9540 8.2624 1.8903 3.4274 6.4574 10.8628 24.3089 0.3487 -1.1230 32.7477 15.3794 0.5432 16.4917 6.5843 -0.0000 0.0000 0.0000 1.5516 18.1033 -37.8880 19.2884 -29.7755 -5.1733 -0.0000 0.0000 -36.4156 49.2465 47.5742 40.5821 -7.1250 0.0000 -0.0000 -2.8460 -0.9496 177.1981 -0.0000 0.0000 0.0000 73.2145 -42.5045 65.6677 -17.9835 28.1360 -4.5414 0.0000 0.0000 1.3184 12.5585 33.3934 6.9900 7.1250 -0.0000 -0.0000 24.2928 1.5850 27.5332
-3.0952 18.6986 -29.9202 134.0950 -72.3429 -147.2190 0.0000 0.0000 0.0000 -12.9014 -7.8524 -31.7199 0.0000 -0.0000 -0.0000 -0.4183 12.3909 0.6996 0.2878 3.4500 9.5342 0.0000 0.0000 0.0000 16.9791 12.5271 8.3558 -4.1352 -12.3382 36.9391 0.2886 11.5385 -2.8102 -1.8843 -8.6207 24.6160 3.7106 5.6670 3.3830 3.7732 7.0707 8.0999 2.0435 3.4853 6.5459 11.2711 24.1224 0.6177 -1.5745 32.5555 15.0083 0.3330 16.3935 6.5514 -0.0000 -0.0000 0.0000 -0.1342 17.8332 -38.4175 19.1750 -29.6355 -5.1171 -0.0000 0.0000 -37.3235 49.8964 47.3830 41.1468 -7.1250 0.0000 -0.0000 -3.1581 -0.8080 176.8820 -0.0000 -0.0000 0.0000 73.4075 -41.6760 65.0033 -17.6140 27.6601 -4.3686 0.0000 0.0000 1.9755 13.1006 33.5406 7.3271 7.1250 -0.0000 -0.0000 24.5517 1.7285 27.9551
-3.1176 18.6468 -29.9567 135.2290 -72.9086 -148.1420 0.0000 0.0000 0.0000 -13.9067 -7.8516 -30.2842 0.0000 0.0000 0.0000 -0.5127 13.1801 -0.6136 0.5708 4.8386 13.4487 0.0000 0.0000 0.0000 17.6966 12.3154 7.7657 -4.3238 -12.5793 37.8133 0.2916 12.0069 -3.4152 -1.2819 -7.1749 20.2346 3.4124 5.7358 3.0227 3.8275 7.1671 7.9311 2.2880 3.5183 6.5212 11.1232 24.0970 0.6863 -1.5688 32.5093 14.6560 0.2972 16.3691 6.3984 0.0000 0.0000 0.0000 -2.0159 17.3372 -39.4566 18.9479 -29.3539 -5.0053 -0.0000 0.0000 -37.6087 50.7968 47.3756 42.0532 -7.1250 0.0000 -0.0000 -3.4720 -0.3688 176.5441 0.0000 0.0000 0.0000 73.5256 -40.7448 64.5791 -17.3684 27.3409 -4.2552 0.0000 0.0000 2.4771 13.2191 34.2200 7.5253 7.1250 -0.0000 -0.0000 24.5679 2.3639 28.2539
-3.1386 18.5815 -29.9955 136.2950 -73.5864 -149.0830 0.0000 0.0000 0.0000 -14.9160 -7.8047 -28.5268 0.0000 -0.0000 -0.0000 -0.6007 13.9154 -1.8897 0.9901 6.3331 17.7540 0.0000 0.0000 0.0000 18.4125 11.9072 7.1459 -4.5380 -12.8439 38.7869 0.2793 12.6444 -4.5002 -0.4254 -4.1859 11.6001 3.1252 5.7448 2.7954 3.9385 7.1850 7.7577 2.5674 3.5108 6.4106 10.3104 24.1192 0.7956 -1.3800 32.5160 14.0808 0.3157 16.3623 6.0371 0.0000 -0.0000 0.0000 -4.3617 16.4727 -41.1779 18.7841 -29.1496 -4.9253 -0.0000 0.0000 -37.1768 51.4536 47.5354 42.7956 -7.1250 0.0000 -0.0000 -176.3784 0.3359 -3.6075 0.0000 -0.0000 0.0000 73.3032 -39.8905 64.8150 -17.5060 27.5199 -4.3185 0.0000 0.0000 2.3362 13.1716 34.6175 7.5730 7.1250 -0.0000 -0.0000 24.5210 2.7330 28.3459
-3.1563 18.5171 -30.0383 137.9440 -74.3669 -150.5920 0.0000 0.0000 0.0000 -15.7107 -7.6143 -26.5679 0.0000 -0.0000 -0.0000 -0.6810 14.7221 -2.3508 1.2165 6.9963 19.7045 0.0000 0.0000 0.0000 19.2825 11.3870 6.4182 -4.7746 -13.1254 39.8396 0.2783 13.1697 -5.1383 -0.1044 -2.0832 5.7355 3.1591 5.7313 2.5282 3.9645 7.1694 7.5927 2.5922 3.5072 6.3867 9.8510 24.0941 1.0326 -1.4419 32.4875 13.3753 0.2304 16.3396 5.7112 0.0000 0.0000 0.0000 -6.8290 15.6505 -42.5254 18.7804 -29.1449 -4.9234 -0.0000 0.0000 -37.0299 52.0906 48.1310 43.7189 -7.1250 0.0000 -0.0000 -176.4434 1.1878 -3.4889 0.0000 0.0000 0.0000 73.4405 -38.8984 64.8028 -17.6870 27.7545 -4.4025 0.0000 0.0000 2.2666 12.8068 35.0962 7.4462 7.1250 -0.0000 -0.0000 24.3164 3.1759 28.2436
-3.1704 18.4430 -30.0822 139.4180 -75.2246 -151.9070 0.0000 0.0000 0.0000 -16.3313 -8.3045 -26.1478 0.0327 1.1665 3.2069 -0.6474 14.5996 -1.2812 0.3712 3.9134 10.8332 0.0000 0.0000 0.0000 20.1380 10.7331 5.6456 -5.0261 -13.4131 40.9353 0.2768 13.5257 -5.5654 -0.0271 -1.0635 2.9234 3.2667 5.7135 2.3363 3.8584 7.1637 7.3773 2.4289 3.5193 6.2921 9.7827 24.0194 1.0075 -1.4309 32.3603 13.0032 0.1953 16.2752 5.5756 -0.0000 0.0000 0.0000 -9.0371 14.8162 -42.7852 18.6807 -29.0201 -4.8750 -0.0000 0.0000 -37.8441 52.9123 48.4025 44.6903 -7.1250 0.0000 -0.0000 -176.3039 1.8685 -3.5812 -0.0000 0.0000 0.0000 74.0697 -37.8929 64.2151 -17.8658 27.9850 -4.4861 0.0000 0.0000 2.3932 12.5680 36.0991 7.4831 7.1250 -0.0000 -0.0000 24.1493 4.1093 28.3897
-3.1857 18.3495 -30.1239 140.7320 -76.1575 -153.1130 0.0000 0.0000 0.0000 -16.1976 -9.7797 -27.4155 0.3285 3.6838 10.1887 -0.5358 13.2404 -1.4387 0.0017 -0.2666 -0.7324 0.0000 0.0000 0.0000 20.9396 10.0251 4.8557 -5.2952 -13.7087 42.0830 0.2945 14.0329 -5.8347 -0.0205 -0.9252 2.5431 3.3316 5.6365 2.1912 3.7475 7.0823 7.1444 2.2743 3.4913 6.1479 9.5289 23.9118 1.1249 -1.4078 32.1900 12.2945 0.1219 16.1904 5.2791 -0.0000 -0.0000 0.0000 -11.1717 13.7848 -43.0604 18.3468 -28.5989 -4.7141 -0.0000 0.0000 -38.2359 53.2591 48.7335 45.1974 -7.1250 0.0000 -0.0000 -176.3515 2.3334 -3.5042 -0.0000 -0.0000 0.0000 74.3684 -37.0116 64.4376 -18.3267 28.5735 -4.7045 0.0000 0.0000 1.7919 11.5048 36.4944 6.9023 7.1250 -0.0000 -0.0000 23.6181 4.4776 27.7835
-3.1993 18.2541 -30.1648 141.8240 -77.0932 -154.0900 0.0000 0.0000 0.0000 -18.3157 -6.0914 -28.6972 0.6909 5.3137 14.8054 -0.1523 8.2469 1.8010 0.2417 -3.1636 -8.7345 0.0000 0.0000 0.0000 21.6160 9.2215 3.9814 -5.5803 -14.0089 43.2733 0.3512 14.6222 -5.5951 -0.1903 -2.8098 7.7496 3.4501 5.5467 1.9669 3.4815 6.9864 6.9465 1.9427 3.4639 6.1125 9.4914 23.7149 1.1104 -1.5811 31.9089 11.5457 -0.0016 16.0443 5.0499 -0.0000 -0.0000 0.0000 -13.3505 12.7596 -42.5795 18.0965 -28.2806 -4.5949 -0.0000 0.0000 -39.2459 52.8930 48.8554 44.8696 -7.1250 0.0000 -0.0000 -176.5269 2.2296 -3.3416 -0.0000 -0.0000 0.0000 74.7295 -36.1391 65.0840 -19.0226 29.4467 -5.0419 0.0000 0.0000 0.5414 10.8010 36.7199 6.5075 7.1250 -0.0000 -0.0000 23.2685 4.6932 27.3753
-3.2118 18.1648 -30.2086 141.3990 -77.9568 -153.4690 0.0000 0.0000 0.0000 -19.7537 -4.1938 -28.9656 1.1352 6.7667 19.0259 -0.0166 4.6419 2.6110 0.4722 -4.4074 -12.2257 0.0000 0.0000 0.0000 21.8160 8.2684 2.8690 -5.8902 -14.3211 44.5396 0.4347 15.3882 -5.1855 -0.5641 -4.8106 13.3693 3.2763 5.4405 1.5553 3.0624 6.8779 6.7588 1.6312 3.4212 6.1752 9.4731 23.6158 0.9242 -1.7025 31.7476 10.9726 -0.0661 15.9548 4.9031 0.0000 0.0000 0.0000 -15.6697 11.6404 -41.5066 17.9042 -28.0343 -4.5041 -0.0000 0.0000 -40.3747 52.0228 49.1459 44.0955 -7.1250 0.0000 -0.0000 -176.9442 1.9942 -2.9519 0.0000 0.0000 0.0000 75.1573 -35.4109 65.4783 -19.8609 30.4744 -5.4606 0.0000 -0.0000 -0.2986 9.7934 37.0985 5.9441 7.1250 -0.0000 -0.0000 22.7668 5.0605 26.8132
-3.2076 18.0814 -30.2694 140.3830 -78.8022 -152.2780 0.0000 0.0000 0.0000 -20.4964 -3.4164 -28.6329 1.6849 8.1763 23.2508 -0.0006 2.8020 1.9280 0.4325 -4.2204 -11.6975 0.0000 0.0000 0.0000 22.1355 7.6958 1.8604 -6.1960 -14.6156 45.7633 0.4859 16.0064 -5.1630 -0.8728 -5.9563 16.6578 2.6594 5.3260 1.3296 2.7404 6.7763 6.4991 1.6319 3.3565 5.9872 9.3530 23.5655 0.8839 -1.6432 31.6442 10.3784 -0.0994 15.9025 4.6870 -0.0000 0.0000 0.0000 -18.1373 10.2335 -40.6716 17.7053 -27.7781 -4.4110 -0.0000 0.0000 -40.5527 51.5325 49.7473 43.8486 -7.1250 0.0000 -0.0000 -177.3855 2.2305 -2.5135 -0.0000 0.0000 0.0000 75.4242 -34.7323 66.0285 -20.6217 31.3841 -5.8517 0.0000 -0.0000 -1.4768 8.9859 37.6951 5.5229 7.1250 -0.0000 -0.0000 22.3595 5.6367 26.4570
